# This file uses centimeters as units for non-parametric coordinates.

mtllib bullet.mtl
g default
v 0.005822 0.000000 0.013270
v 0.003911 0.004615 0.013270
v -0.000704 0.006526 0.013270
v -0.005318 0.004615 0.013270
v -0.007230 -0.000000 0.013270
v -0.005318 -0.004615 0.013270
v -0.000704 -0.006526 0.013270
v 0.003911 -0.004615 0.013270
v 0.005822 0.000000 0.001719
v 0.003911 0.004615 0.001719
v -0.000704 0.006526 0.001719
v -0.005318 0.004615 0.001719
v -0.007230 -0.000000 0.001719
v -0.005318 -0.004615 0.001719
v -0.000704 -0.006526 0.001719
v 0.003911 -0.004615 0.001719
v 0.005822 0.000000 -0.009832
v 0.003911 0.004615 -0.009832
v -0.000704 0.006526 -0.009832
v -0.005318 0.004615 -0.009832
v -0.007230 -0.000000 -0.009832
v -0.005318 -0.004615 -0.009832
v -0.000704 -0.006526 -0.009832
v 0.003911 -0.004615 -0.009832
v 0.005822 0.000000 -0.021382
v 0.003911 0.004615 -0.021382
v -0.000704 0.006526 -0.021382
v -0.005318 0.004615 -0.021382
v -0.007230 -0.000000 -0.021382
v -0.005318 -0.004615 -0.021382
v -0.000704 -0.006526 -0.021382
v 0.003911 -0.004615 -0.021382
v 0.005379 -0.000000 -0.033614
v 0.003598 -0.004302 -0.033614
v 0.003911 0.004615 0.015108
v 0.005822 -0.000000 0.015108
v 0.003911 -0.004615 0.015108
v -0.000704 0.006526 0.015108
v -0.005318 0.004615 0.015108
v -0.007230 -0.000000 0.015108
v -0.005318 -0.004615 0.015108
v -0.000704 -0.006526 0.015108
v 0.002966 0.003670 0.018566
v 0.004486 -0.000000 0.018566
v -0.000704 0.005190 0.018566
v 0.002966 -0.003670 0.018566
v -0.000704 -0.005190 0.018566
v -0.004374 0.003670 0.018566
v -0.005894 -0.000000 0.018566
v -0.004374 -0.003670 0.018566
v 0.002966 0.003670 0.022525
v -0.000704 0.005190 0.022525
v -0.004374 0.003670 0.022525
v -0.005894 -0.000000 0.022525
v 0.004486 -0.000000 0.022525
v 0.002966 -0.003670 0.022525
v -0.000704 -0.005190 0.022525
v -0.004374 -0.003670 0.022525
v 0.002367 0.003070 0.027852
v 0.003638 -0.000000 0.027852
v -0.000704 0.004342 0.027852
v 0.002367 -0.003070 0.027852
v -0.003774 0.003070 0.027852
v -0.000704 -0.004342 0.027852
v -0.005046 0.000000 0.027852
v -0.003774 -0.003070 0.027852
v 0.001829 0.002533 0.034696
v 0.002878 -0.000000 0.034696
v -0.000704 0.003582 0.034696
v 0.001829 -0.002533 0.034696
v -0.003236 0.002533 0.034696
v -0.000704 -0.003582 0.034696
v -0.004286 0.000000 0.034696
v -0.003236 -0.002533 0.034696
v -0.000296 0.000408 0.045612
v -0.001111 -0.000408 0.045612
v -0.000704 -0.006083 -0.033614
v -0.005005 -0.004302 -0.033614
v 0.003598 0.004302 -0.033614
v -0.000704 0.006083 -0.033614
v -0.005005 0.004302 -0.033614
v -0.006787 -0.000000 -0.033614
v 0.002817 -0.000000 -0.034354
v 0.001785 -0.002489 -0.034354
v -0.000704 -0.003520 -0.034354
v -0.000704 0.003520 -0.034354
v -0.004224 0.000000 -0.034354
v -0.000704 0.000020 -0.034268
vn 1.000000 0.000000 0.000000
vn 1.000000 0.000000 -0.000000
vn 0.707107 0.707107 0.000000
vn 0.707107 0.707107 -0.000000
vn 0.707107 0.707107 0.000000
vn 0.707107 0.707107 -0.000000
vn -0.000000 1.000000 -0.000000
vn -0.000000 1.000000 -0.000000
vn -0.000000 1.000000 -0.000000
vn -0.000000 1.000000 -0.000000
vn -0.707107 0.707107 -0.000000
vn -0.707107 0.707107 -0.000000
vn -0.707107 0.707107 -0.000000
vn -0.707107 0.707107 -0.000000
vn -1.000000 0.000000 -0.000000
vn -1.000000 -0.000000 -0.000000
vn -1.000000 0.000000 -0.000000
vn -1.000000 -0.000000 -0.000000
vn -0.707107 -0.707107 -0.000000
vn -0.707107 -0.707107 -0.000000
vn -0.707107 -0.707107 -0.000000
vn -0.707107 -0.707107 -0.000000
vn 0.000000 -1.000000 0.000000
vn 0.000000 -1.000000 0.000000
vn 0.000000 -1.000000 0.000000
vn 0.000000 -1.000000 0.000000
vn 0.707107 -0.707107 0.000000
vn 0.707107 -0.707107 0.000000
vn 0.707107 -0.707107 0.000000
vn 0.707107 -0.707107 0.000000
vn 1.000000 0.000000 0.000000
vn 1.000000 0.000000 -0.000000
vn 1.000000 0.000000 -0.000000
vn 1.000000 0.000000 -0.000000
vn 0.707107 0.707107 -0.000000
vn 0.707107 0.707107 -0.000000
vn 0.707107 0.707107 -0.000000
vn 0.707107 0.707107 -0.000000
vn -0.000000 1.000000 -0.000000
vn -0.000000 1.000000 -0.000000
vn -0.000000 1.000000 -0.000000
vn -0.000000 1.000000 -0.000000
vn -0.707107 0.707107 -0.000000
vn -0.707107 0.707107 -0.000000
vn -0.707107 0.707107 -0.000000
vn -0.707107 0.707107 -0.000000
vn -1.000000 -0.000000 -0.000000
vn -1.000000 -0.000000 -0.000000
vn -1.000000 -0.000000 -0.000000
vn -1.000000 -0.000000 -0.000000
vn -0.707107 -0.707107 -0.000000
vn -0.707107 -0.707107 -0.000000
vn -0.707107 -0.707107 -0.000000
vn -0.707107 -0.707107 -0.000000
vn 0.000000 -1.000000 0.000000
vn 0.000000 -1.000000 0.000000
vn 0.000000 -1.000000 0.000000
vn 0.000000 -1.000000 0.000000
vn 0.707107 -0.707107 0.000000
vn 0.707107 -0.707107 0.000000
vn 0.707107 -0.707107 0.000000
vn 0.707107 -0.707107 0.000000
vn 1.000000 0.000000 -0.000000
vn 1.000000 0.000000 -0.000000
vn 1.000000 0.000000 -0.000000
vn 1.000000 0.000000 -0.000000
vn 0.707107 0.707107 -0.000000
vn 0.707107 0.707107 -0.000000
vn 0.707107 0.707107 -0.000000
vn 0.707107 0.707107 -0.000000
vn -0.000000 1.000000 -0.000000
vn -0.000000 1.000000 -0.000000
vn -0.000000 1.000000 -0.000000
vn -0.000000 1.000000 -0.000000
vn -0.707107 0.707107 -0.000000
vn -0.707107 0.707107 -0.000000
vn -0.707107 0.707107 -0.000000
vn -0.707107 0.707107 -0.000000
vn -1.000000 -0.000000 -0.000000
vn -1.000000 -0.000000 -0.000000
vn -1.000000 -0.000000 -0.000000
vn -1.000000 -0.000000 -0.000000
vn -0.707107 -0.707107 -0.000000
vn -0.707107 -0.707107 -0.000000
vn -0.707107 -0.707107 -0.000000
vn -0.707107 -0.707107 -0.000000
vn 0.000000 -1.000000 0.000000
vn 0.000000 -1.000000 0.000000
vn 0.000000 -1.000000 0.000000
vn 0.000000 -1.000000 0.000000
vn 0.707107 -0.707107 0.000000
vn 0.707107 -0.707107 0.000000
vn 0.707107 -0.707107 0.000000
vn 0.707107 -0.707107 0.000000
vn 1.000000 0.000000 -0.000000
vn 1.000000 0.000000 -0.000000
vn 1.000000 0.000000 -0.000000
vn 0.957880 0.000000 -0.287168
vn 0.707107 0.707107 -0.000000
vn 0.677324 0.677324 -0.287168
vn 0.707107 0.707107 -0.000000
vn 0.677324 0.677324 -0.287168
vn -0.000000 1.000000 -0.000000
vn -0.000000 0.957880 -0.287168
vn -0.000000 1.000000 -0.000000
vn -0.000000 0.957880 -0.287168
vn -0.707107 0.707107 -0.000000
vn -0.677324 0.677324 -0.287168
vn -0.707107 0.707107 -0.000000
vn -0.677324 0.677324 -0.287168
vn -1.000000 -0.000000 -0.000000
vn -0.957880 -0.000000 -0.287168
vn -1.000000 -0.000000 -0.000000
vn -0.957880 -0.000000 -0.287168
vn -0.707107 -0.707107 -0.000000
vn -0.677324 -0.677324 -0.287168
vn -0.707107 -0.707107 -0.000000
vn -0.677324 -0.677324 -0.287168
vn 0.000000 -1.000000 0.000000
vn 0.000000 -0.957880 -0.287168
vn 0.000000 -1.000000 0.000000
vn 0.000000 -0.957880 -0.287168
vn 0.707107 -0.707107 0.000000
vn 0.677324 -0.677324 -0.287168
vn 0.707107 -0.707107 0.000000
vn 0.677324 -0.677324 -0.287168
vn 1.000000 0.000000 -0.000000
vn 0.957880 0.000000 -0.287168
vn 1.000000 0.000000 0.000000
vn 0.707107 0.707107 0.000000
vn 0.982891 0.000000 0.184188
vn 0.695009 0.695009 0.184188
vn 0.707107 -0.707107 0.000000
vn 1.000000 0.000000 0.000000
vn 0.695009 -0.695009 0.184188
vn 0.982891 0.000000 0.184188
vn 0.707107 0.707107 0.000000
vn -0.000000 1.000000 -0.000000
vn 0.695009 0.695009 0.184188
vn -0.000000 0.982891 0.184188
vn -0.000000 1.000000 -0.000000
vn -0.707107 0.707107 -0.000000
vn -0.000000 0.982891 0.184188
vn -0.695009 0.695009 0.184188
vn -0.707107 0.707107 -0.000000
vn -1.000000 0.000000 -0.000000
vn -0.695009 0.695009 0.184188
vn -0.982891 0.000000 0.184188
vn -1.000000 0.000000 -0.000000
vn -0.707107 -0.707107 -0.000000
vn -0.982891 0.000000 0.184188
vn -0.695009 -0.695009 0.184188
vn -0.707107 -0.707107 -0.000000
vn 0.000000 -1.000000 0.000000
vn -0.695009 -0.695009 0.184188
vn 0.000000 -0.982891 0.184188
vn 0.000000 -1.000000 0.000000
vn 0.707107 -0.707107 0.000000
vn 0.000000 -0.982891 0.184188
vn 0.695009 -0.695009 0.184188
vn 0.982891 0.000000 0.184188
vn 0.695009 0.695009 0.184188
vn 0.982891 0.000000 0.184188
vn 0.695009 0.695009 0.184188
vn 0.695009 0.695009 0.184188
vn -0.000000 0.982891 0.184188
vn 0.695009 0.695009 0.184188
vn 0.000000 0.982891 0.184188
vn 0.695009 -0.695009 0.184188
vn 0.982891 0.000000 0.184188
vn 0.695009 -0.695009 0.184188
vn 0.982891 0.000000 0.184188
vn 0.000000 -0.982891 0.184188
vn 0.695009 -0.695009 0.184188
vn 0.000000 -0.982891 0.184188
vn 0.695009 -0.695009 0.184188
vn -0.000000 0.982891 0.184188
vn -0.695009 0.695009 0.184188
vn 0.000000 0.982891 0.184188
vn -0.695009 0.695009 0.184188
vn -0.695009 0.695009 0.184188
vn -0.982891 0.000000 0.184188
vn -0.695009 0.695009 0.184188
vn -0.982891 -0.000000 0.184188
vn -0.982891 0.000000 0.184188
vn -0.695009 -0.695009 0.184188
vn -0.982891 -0.000000 0.184188
vn -0.695009 -0.695009 0.184188
vn -0.695009 -0.695009 0.184188
vn 0.000000 -0.982891 0.184188
vn -0.695009 -0.695009 0.184188
vn 0.000000 -0.982891 0.184188
vn 0.982891 0.000000 0.184188
vn 0.695009 0.695009 0.184188
vn 1.000000 0.000000 -0.000000
vn 0.707107 0.707107 -0.000000
vn 0.695009 0.695009 0.184188
vn 0.000000 0.982891 0.184188
vn 0.707107 0.707107 -0.000000
vn 0.000000 1.000000 0.000000
vn 0.695009 -0.695009 0.184188
vn 0.982891 0.000000 0.184188
vn 0.707107 -0.707107 -0.000000
vn 1.000000 0.000000 -0.000000
vn 0.000000 0.982891 0.184188
vn -0.695009 0.695009 0.184188
vn 0.000000 1.000000 0.000000
vn -0.707107 0.707107 0.000000
vn 0.000000 -0.982891 0.184188
vn 0.695009 -0.695009 0.184188
vn -0.000000 -1.000000 0.000000
vn 0.707107 -0.707107 -0.000000
vn -0.695009 -0.695009 0.184188
vn 0.000000 -0.982891 0.184188
vn -0.707107 -0.707107 0.000000
vn -0.000000 -1.000000 0.000000
vn -0.695009 0.695009 0.184188
vn -0.982891 -0.000000 0.184188
vn -0.707107 0.707107 0.000000
vn -1.000000 -0.000000 0.000000
vn -0.982891 -0.000000 0.184188
vn -0.695009 -0.695009 0.184188
vn -1.000000 -0.000000 0.000000
vn -0.707107 -0.707107 0.000000
vn 1.000000 0.000000 0.000000
vn 0.707107 0.707107 0.000000
vn 0.998468 0.000000 0.055342
vn 0.706023 0.706023 0.055342
vn 0.707107 0.707107 0.000000
vn -0.000000 1.000000 -0.000000
vn 0.706023 0.706023 0.055342
vn 0.000000 0.998468 0.055342
vn 0.707107 -0.707107 0.000000
vn 1.000000 0.000000 0.000000
vn 0.706023 -0.706023 0.055342
vn 0.998468 0.000000 0.055342
vn -0.000000 1.000000 -0.000000
vn -0.707107 0.707107 -0.000000
vn 0.000000 0.998468 0.055342
vn -0.706023 0.706023 0.055342
vn 0.000000 -1.000000 0.000000
vn 0.707107 -0.707107 0.000000
vn 0.000000 -0.998468 0.055342
vn 0.706023 -0.706023 0.055342
vn -0.707107 0.707107 -0.000000
vn -1.000000 0.000000 -0.000000
vn -0.706023 0.706023 0.055342
vn -0.998468 0.000000 0.055342
vn -0.707107 -0.707107 -0.000000
vn 0.000000 -1.000000 0.000000
vn -0.706023 -0.706023 0.055342
vn 0.000000 -0.998468 0.055342
vn -1.000000 0.000000 -0.000000
vn -0.707107 -0.707107 -0.000000
vn -0.998468 0.000000 0.055342
vn -0.706023 -0.706023 0.055342
vn 0.998468 0.000000 0.055342
vn 0.706023 0.706023 0.055342
vn 0.982035 0.000000 0.188701
vn 0.694403 0.694403 0.188701
vn 0.706023 0.706023 0.055342
vn 0.000000 0.998468 0.055342
vn 0.694403 0.694403 0.188701
vn 0.000000 0.982035 0.188701
vn 0.706023 -0.706023 0.055342
vn 0.998468 0.000000 0.055342
vn 0.694403 -0.694403 0.188701
vn 0.982035 0.000000 0.188701
vn 0.000000 0.998468 0.055342
vn -0.706023 0.706023 0.055342
vn 0.000000 0.982035 0.188701
vn -0.694403 0.694403 0.188701
vn 0.000000 -0.998468 0.055342
vn 0.706023 -0.706023 0.055342
vn 0.000000 -0.982035 0.188701
vn 0.694403 -0.694403 0.188701
vn -0.706023 0.706023 0.055342
vn -0.998468 0.000000 0.055342
vn -0.694403 0.694403 0.188701
vn -0.982035 0.000000 0.188701
vn -0.706023 -0.706023 0.055342
vn 0.000000 -0.998468 0.055342
vn -0.694403 -0.694403 0.188701
vn 0.000000 -0.982035 0.188701
vn -0.998468 0.000000 0.055342
vn -0.706023 -0.706023 0.055342
vn -0.982035 0.000000 0.188701
vn -0.694403 -0.694403 0.188701
vn 0.982035 0.000000 0.188701
vn 0.694403 0.694403 0.188701
vn 0.964130 -0.000000 0.265429
vn 0.694403 0.694403 0.188701
vn 0.000000 0.982035 0.188701
vn 0.681743 0.681743 0.265429
vn 0.694403 -0.694403 0.188701
vn 0.982035 0.000000 0.188701
vn 0.681743 -0.681743 0.265429
vn 0.964130 -0.000000 0.265429
vn 0.000000 0.982035 0.188701
vn -0.694403 0.694403 0.188701
vn 0.000000 0.964130 0.265429
vn 0.000000 -0.982035 0.188701
vn 0.694403 -0.694403 0.188701
vn 0.000000 -0.964130 0.265429
vn -0.694403 0.694403 0.188701
vn -0.982035 0.000000 0.188701
vn -0.681743 0.681743 0.265429
vn -0.964130 0.000000 0.265429
vn -0.694403 -0.694403 0.188701
vn 0.000000 -0.982035 0.188701
vn -0.681743 -0.681743 0.265429
vn -0.982035 0.000000 0.188701
vn -0.694403 -0.694403 0.188701
vn -0.964130 0.000000 0.265429
vn -0.000000 -0.000000 -1.000000
vn 0.000000 -0.000000 -1.000000
vn -0.000000 -0.000000 -1.000000
vn 0.000000 -0.000000 -1.000000
vn 0.000000 -0.000000 -1.000000
vn 0.000000 -0.000000 -1.000000
vn 0.000000 -0.000000 -1.000000
vn 0.000000 -0.000000 -1.000000
vn -0.000000 -0.000000 -1.000000
vn -0.000000 -0.000000 -1.000000
vn -0.000000 -0.000000 -1.000000
vn 0.000000 -0.000000 -1.000000
vn 0.000000 -0.000000 -1.000000
vn 0.000000 -0.000000 -1.000000
vn 0.000000 -0.000000 -1.000000
vn -0.000000 -0.000000 -1.000000
vn -0.000000 -0.000000 -1.000000
vn -0.000000 -0.000000 -1.000000
vn -0.000000 -0.000000 -1.000000
vn 0.000000 -0.000000 -1.000000
vn 0.000000 -0.000000 -1.000000
vn 0.000000 -0.000000 -1.000000
vn -0.000000 -0.000000 -1.000000
vn -0.000000 -0.000000 -1.000000
vn -0.000000 -0.000000 -1.000000
vn 0.000000 -0.000000 -1.000000
vn -0.000000 -0.000000 -1.000000
vn 0.000000 -0.000000 -1.000000
vn -0.000000 -0.000000 -1.000000
vn 0.000000 -0.000000 -1.000000
vn -0.000000 -0.000000 -1.000000
vn -0.114958 -0.114958 -0.986696
vn -0.000000 -0.000000 -1.000000
vn -0.000000 -0.000000 -1.000000
vn -0.000000 -0.000000 -1.000000
vn -0.000000 -0.000000 -1.000000
vn -0.000000 -0.000000 -1.000000
vn -0.044714 0.107948 -0.993151
vn 0.000000 -0.000000 -1.000000
vn 0.000000 -0.000000 -1.000000
vn 0.044714 -0.107948 -0.993151
vn -0.000000 -0.000000 -1.000000
vn 0.000000 -0.000000 -1.000000
vn 0.044714 0.107948 -0.993151
s 1
g bullet:Bullet1
usemtl initialShadingGroup
f 1//1 9//2 2//3
f 2//3 9//2 10//4
s 2
f 2//5 10//6 3//7
f 3//7 10//6 11//8
s 3
f 3//9 11//10 4//11
f 4//11 11//10 12//12
s 4
f 4//13 12//14 5//15
f 5//15 12//14 13//16
s 5
f 5//17 13//18 6//19
f 6//19 13//18 14//20
s 6
f 6//21 14//22 7//23
f 7//23 14//22 15//24
s 7
f 7//25 15//26 8//27
f 8//27 15//26 16//28
s 8
f 8//29 16//30 1//31
f 1//31 16//30 9//32
s 9
f 9//33 17//34 10//35
f 10//35 17//34 18//36
s 10
f 10//37 18//38 11//39
f 11//39 18//38 19//40
s 11
f 11//41 19//42 12//43
f 12//43 19//42 20//44
s 12
f 12//45 20//46 13//47
f 13//47 20//46 21//48
s 13
f 13//49 21//50 14//51
f 14//51 21//50 22//52
s 14
f 14//53 22//54 15//55
f 15//55 22//54 23//56
s 15
f 15//57 23//58 16//59
f 16//59 23//58 24//60
s 16
f 16//61 24//62 9//63
f 9//63 24//62 17//64
s 17
f 17//65 25//66 18//67
f 18//67 25//66 26//68
s 18
f 18//69 26//70 19//71
f 19//71 26//70 27//72
s 19
f 19//73 27//74 20//75
f 20//75 27//74 28//76
s 20
f 20//77 28//78 21//79
f 21//79 28//78 29//80
s 21
f 21//81 29//82 22//83
f 22//83 29//82 30//84
s 22
f 22//85 30//86 23//87
f 23//87 30//86 31//88
s 23
f 23//89 31//90 24//91
f 24//91 31//90 32//92
s 24
f 24//93 32//94 17//95
f 17//95 32//94 25//96
s 25
f 25//97 33//98 26//99
f 26//99 33//98 79//100
s 26
f 26//101 79//102 27//103
f 27//103 79//102 80//104
s 27
f 27//105 80//106 28//107
f 28//107 80//106 81//108
s 28
f 28//109 81//110 29//111
f 29//111 81//110 82//112
s 29
f 29//113 82//114 30//115
f 30//115 82//114 78//116
s 30
f 30//117 78//118 31//119
f 31//119 78//118 77//120
s 31
f 31//121 77//122 32//123
f 32//123 77//122 34//124
s 32
f 32//125 34//126 25//127
f 25//127 34//126 33//128
s 33
f 1//129 2//130 36//131
f 36//131 2//130 35//132
s 34
f 8//133 1//134 37//135
f 37//135 1//134 36//136
s 35
f 2//137 3//138 35//139
f 35//139 3//138 38//140
s 36
f 3//141 4//142 38//143
f 38//143 4//142 39//144
s 37
f 4//145 5//146 39//147
f 39//147 5//146 40//148
s 38
f 5//149 6//150 40//151
f 40//151 6//150 41//152
s 39
f 6//153 7//154 41//155
f 41//155 7//154 42//156
s 40
f 7//157 8//158 42//159
f 42//159 8//158 37//160
s 41
f 36//161 35//162 44//163
f 44//163 35//162 43//164
s 42
f 35//165 38//166 43//167
f 43//167 38//166 45//168
s 43
f 37//169 36//170 46//171
f 46//171 36//170 44//172
s 44
f 42//173 37//174 47//175
f 47//175 37//174 46//176
s 45
f 38//177 39//178 45//179
f 45//179 39//178 48//180
s 46
f 39//181 40//182 48//183
f 48//183 40//182 49//184
s 47
f 40//185 41//186 49//187
f 49//187 41//186 50//188
s 48
f 41//189 42//190 50//191
f 50//191 42//190 47//192
s 49
f 44//193 43//194 55//195
f 55//195 43//194 51//196
s 50
f 43//197 45//198 51//199
f 51//199 45//198 52//200
s 51
f 46//201 44//202 56//203
f 56//203 44//202 55//204
s 52
f 45//205 48//206 52//207
f 52//207 48//206 53//208
s 53
f 47//209 46//210 57//211
f 57//211 46//210 56//212
s 54
f 50//213 47//214 58//215
f 58//215 47//214 57//216
s 55
f 48//217 49//218 53//219
f 53//219 49//218 54//220
s 56
f 49//221 50//222 54//223
f 54//223 50//222 58//224
s 57
f 55//225 51//226 60//227
f 60//227 51//226 59//228
s 58
f 51//229 52//230 59//231
f 59//231 52//230 61//232
s 59
f 56//233 55//234 62//235
f 62//235 55//234 60//236
s 60
f 52//237 53//238 61//239
f 61//239 53//238 63//240
s 61
f 57//241 56//242 64//243
f 64//243 56//242 62//244
s 62
f 53//245 54//246 63//247
f 63//247 54//246 65//248
s 63
f 58//249 57//250 66//251
f 66//251 57//250 64//252
s 64
f 54//253 58//254 65//255
f 65//255 58//254 66//256
s 65
f 60//257 59//258 68//259
f 68//259 59//258 67//260
s 66
f 59//261 61//262 67//263
f 67//263 61//262 69//264
s 67
f 62//265 60//266 70//267
f 70//267 60//266 68//268
s 68
f 61//269 63//270 69//271
f 69//271 63//270 71//272
s 69
f 64//273 62//274 72//275
f 72//275 62//274 70//276
s 70
f 63//277 65//278 71//279
f 71//279 65//278 73//280
s 71
f 66//281 64//282 74//283
f 74//283 64//282 72//284
s 72
f 65//285 66//286 73//287
f 73//287 66//286 74//288
s off
f 68//289 67//290 75//291
f 67//292 69//293 75//294
s 73
f 70//295 68//296 76//297
f 76//297 68//296 75//298
s off
f 69//299 71//300 75//301
f 72//302 70//303 76//304
s 74
f 71//305 73//306 75//307
f 75//307 73//306 76//308
s off
f 74//309 72//310 76//311
f 73//312 74//313 76//314
s 75
f 79//315 33//316 86//317
f 86//317 33//316 83//318
s 76
f 33//319 34//320 83//321
f 83//321 34//320 84//322
s off
f 80//323 79//324 86//325
s 77
f 34//326 77//327 84//328
f 84//328 77//327 85//329
s 78
f 81//330 80//331 87//332
f 87//332 80//331 86//333
s off
f 77//334 78//335 85//336
f 82//337 81//338 87//339
s 79
f 78//340 82//341 85//342
f 85//342 82//341 87//343
s off
f 86//344 83//345 88//346
f 83//347 84//348 88//349
f 84//350 85//351 88//352
f 87//353 86//354 88//355
f 85//356 87//357 88//358
